<svg width="132" height="95" viewBox="0 0 132 95" fill="none" xmlns="http://www.w3.org/2000/svg">
<rect x="50.2473" y="33.9044" width="22.2777" height="22.2777" transform="rotate(-45 50.2473 33.9044)" stroke="#703AB3" stroke-width="1.72226"/>
<rect opacity="0.35" x="50.2473" y="22.7045" width="22.2777" height="22.2777" transform="rotate(-45 50.2473 22.7045)" stroke="#703AB3" stroke-opacity="0.8" stroke-width="1.72226"/>
<path d="M10.3575 80.875V64.123H21.0615V67.075H13.9575V70.915H20.8215V73.867H13.9575V77.923H21.0615V80.875H10.3575ZM32.2601 78.619H32.0921C31.7721 79.371 31.3241 79.987 30.7481 80.467C30.1881 80.931 29.4121 81.163 28.4201 81.163C27.7321 81.163 27.1001 81.035 26.5241 80.779C25.9641 80.523 25.4761 80.131 25.0601 79.603C24.6601 79.075 24.3401 78.403 24.1001 77.587C23.8761 76.771 23.7641 75.803 23.7641 74.683C23.7641 73.563 23.8761 72.595 24.1001 71.779C24.3401 70.963 24.6601 70.291 25.0601 69.763C25.4761 69.235 25.9641 68.843 26.5241 68.587C27.1001 68.331 27.7321 68.203 28.4201 68.203C28.9161 68.203 29.3561 68.267 29.7401 68.395C30.1241 68.523 30.4601 68.699 30.7481 68.923C31.0521 69.147 31.3081 69.419 31.5161 69.739C31.7401 70.043 31.9321 70.379 32.0921 70.747H32.2601V63.115H35.8121V80.875H32.2601V78.619ZM29.9561 78.403C30.5801 78.403 31.1161 78.251 31.5641 77.947C32.0281 77.643 32.2601 77.163 32.2601 76.507V72.859C32.2601 72.203 32.0281 71.723 31.5641 71.419C31.1161 71.115 30.5801 70.963 29.9561 70.963C29.1561 70.963 28.5401 71.211 28.1081 71.707C27.6761 72.187 27.4601 72.859 27.4601 73.723V75.643C27.4601 76.507 27.6761 77.187 28.1081 77.683C28.5401 78.163 29.1561 78.403 29.9561 78.403ZM51.2108 82.123C51.2108 83.435 50.6588 84.403 49.5547 85.027C48.4508 85.651 46.7148 85.963 44.3468 85.963C43.1628 85.963 42.1868 85.891 41.4188 85.747C40.6508 85.619 40.0348 85.427 39.5708 85.171C39.1228 84.915 38.8028 84.611 38.6108 84.259C38.4348 83.907 38.3468 83.523 38.3468 83.107C38.3468 82.403 38.5548 81.867 38.9708 81.499C39.3868 81.147 39.9708 80.875 40.7228 80.683V80.539C40.1948 80.379 39.7708 80.155 39.4508 79.867C39.1468 79.563 38.9948 79.139 38.9948 78.595C38.9948 77.987 39.1948 77.539 39.5948 77.251C40.0108 76.963 40.5548 76.739 41.2268 76.579V76.435C40.4908 76.083 39.9148 75.587 39.4988 74.947C39.0988 74.307 38.8988 73.531 38.8988 72.619C38.8988 71.899 39.0268 71.267 39.2828 70.723C39.5388 70.163 39.8988 69.699 40.3628 69.331C40.8428 68.963 41.4108 68.683 42.0668 68.491C42.7228 68.299 43.4588 68.203 44.2747 68.203C45.0588 68.203 45.7868 68.291 46.4588 68.467V67.795C46.4588 67.315 46.6268 66.915 46.9628 66.595C47.2988 66.275 47.7628 66.115 48.3548 66.115H50.5388V68.707H47.5628V68.923C48.2348 69.275 48.7548 69.763 49.1228 70.387C49.5068 70.995 49.6988 71.739 49.6988 72.619C49.6988 73.339 49.5708 73.971 49.3148 74.515C49.0588 75.059 48.6908 75.523 48.2108 75.907C47.7308 76.275 47.1548 76.555 46.4828 76.747C45.8268 76.939 45.0908 77.035 44.2747 77.035C43.9068 77.035 43.5548 77.019 43.2188 76.987C42.8828 76.939 42.5628 76.875 42.2588 76.795C42.0828 76.891 41.9308 77.011 41.8028 77.155C41.6908 77.299 41.6348 77.483 41.6348 77.707C41.6348 77.899 41.6828 78.051 41.7788 78.163C41.8748 78.275 42.0028 78.363 42.1628 78.427C42.3388 78.475 42.5388 78.507 42.7628 78.523C42.9868 78.539 43.2188 78.547 43.4588 78.547H46.2908C47.1708 78.547 47.9228 78.635 48.5468 78.811C49.1708 78.987 49.6828 79.235 50.0828 79.555C50.4828 79.875 50.7708 80.251 50.9468 80.683C51.1228 81.115 51.2108 81.595 51.2108 82.123ZM47.8508 82.387C47.8508 82.067 47.7228 81.811 47.4668 81.619C47.2108 81.443 46.7228 81.355 46.0028 81.355H41.7548C41.4348 81.627 41.2748 81.963 41.2748 82.363C41.2748 82.747 41.4348 83.059 41.7548 83.299C42.0908 83.555 42.6508 83.683 43.4348 83.683H45.5228C46.3388 83.683 46.9308 83.571 47.2988 83.347C47.6668 83.123 47.8508 82.803 47.8508 82.387ZM44.2747 74.779C44.9948 74.779 45.5148 74.603 45.8348 74.251C46.1708 73.899 46.3388 73.451 46.3388 72.907V72.331C46.3388 71.787 46.1708 71.339 45.8348 70.987C45.5148 70.635 44.9948 70.459 44.2747 70.459C43.5707 70.459 43.0588 70.635 42.7388 70.987C42.4188 71.339 42.2588 71.787 42.2588 72.331V72.907C42.2588 73.451 42.4188 73.899 42.7388 74.251C43.0588 74.603 43.5707 74.779 44.2747 74.779ZM59.1454 81.163C57.0654 81.163 55.4894 80.587 54.4174 79.435C53.3454 78.283 52.8094 76.715 52.8094 74.731C52.8094 73.723 52.9454 72.819 53.2174 72.019C53.5054 71.203 53.9054 70.515 54.4174 69.955C54.9454 69.379 55.5774 68.947 56.3134 68.659C57.0654 68.355 57.9054 68.203 58.8334 68.203C59.7614 68.203 60.5934 68.355 61.3294 68.659C62.0654 68.947 62.6894 69.363 63.2014 69.907C63.7134 70.451 64.1054 71.115 64.3774 71.899C64.6654 72.667 64.8094 73.531 64.8094 74.491V75.547H56.3374V75.763C56.3374 76.563 56.5854 77.211 57.0814 77.707C57.5774 78.187 58.3054 78.427 59.2654 78.427C60.0014 78.427 60.6334 78.291 61.1614 78.019C61.6894 77.731 62.1454 77.355 62.5294 76.891L64.4494 78.979C63.9694 79.571 63.2974 80.083 62.4334 80.515C61.5694 80.947 60.4734 81.163 59.1454 81.163ZM58.8574 70.747C58.0894 70.747 57.4734 70.987 57.0094 71.467C56.5614 71.931 56.3374 72.563 56.3374 73.363V73.555H61.3294V73.363C61.3294 72.547 61.1054 71.907 60.6574 71.443C60.2254 70.979 59.6254 70.747 58.8574 70.747ZM75 67.075V80.875H71.4V67.075H66.576V64.123H79.824V67.075H75ZM87.9266 81.163C85.8466 81.163 84.2706 80.587 83.1986 79.435C82.1266 78.283 81.5906 76.715 81.5906 74.731C81.5906 73.723 81.7266 72.819 81.9986 72.019C82.2866 71.203 82.6866 70.515 83.1986 69.955C83.7266 69.379 84.3586 68.947 85.0946 68.659C85.8466 68.355 86.6866 68.203 87.6146 68.203C88.5426 68.203 89.3746 68.355 90.1106 68.659C90.8466 68.947 91.4706 69.363 91.9826 69.907C92.4946 70.451 92.8866 71.115 93.1586 71.899C93.4466 72.667 93.5906 73.531 93.5906 74.491V75.547H85.1186V75.763C85.1186 76.563 85.3666 77.211 85.8626 77.707C86.3586 78.187 87.0866 78.427 88.0466 78.427C88.7826 78.427 89.4146 78.291 89.9426 78.019C90.4706 77.731 90.9266 77.355 91.3106 76.891L93.2306 78.979C92.7506 79.571 92.0786 80.083 91.2146 80.515C90.3506 80.947 89.2546 81.163 87.9266 81.163ZM87.6386 70.747C86.8706 70.747 86.2546 70.987 85.7906 71.467C85.3426 71.931 85.1186 72.563 85.1186 73.363V73.555H90.1106V73.363C90.1106 72.547 89.8866 71.907 89.4386 71.443C89.0066 70.979 88.4066 70.747 87.6386 70.747ZM102.485 81.163C101.509 81.163 100.629 81.019 99.8453 80.731C99.0773 80.427 98.4213 79.995 97.8773 79.435C97.3493 78.875 96.9413 78.195 96.6533 77.395C96.3653 76.595 96.2213 75.691 96.2213 74.683C96.2213 73.675 96.3653 72.771 96.6533 71.971C96.9413 71.171 97.3493 70.491 97.8773 69.931C98.4213 69.371 99.0773 68.947 99.8453 68.659C100.629 68.355 101.501 68.203 102.461 68.203C103.821 68.203 104.909 68.483 105.725 69.043C106.557 69.587 107.189 70.315 107.621 71.227L104.885 72.715C104.661 72.235 104.365 71.835 103.997 71.515C103.645 71.195 103.133 71.035 102.461 71.035C101.645 71.035 101.013 71.275 100.565 71.755C100.133 72.219 99.9173 72.859 99.9173 73.675V75.691C99.9173 76.507 100.133 77.155 100.565 77.635C101.013 78.099 101.661 78.331 102.509 78.331C103.197 78.331 103.733 78.171 104.117 77.851C104.517 77.531 104.853 77.115 105.125 76.603L107.813 78.139C107.365 79.051 106.709 79.787 105.845 80.347C104.997 80.891 103.877 81.163 102.485 81.163ZM110.732 63.115H114.284V70.747H114.428C114.572 70.395 114.748 70.067 114.956 69.763C115.164 69.459 115.412 69.195 115.7 68.971C116.004 68.731 116.348 68.547 116.732 68.419C117.132 68.275 117.58 68.203 118.076 68.203C118.668 68.203 119.212 68.307 119.708 68.515C120.204 68.707 120.628 69.003 120.98 69.403C121.332 69.803 121.604 70.291 121.796 70.867C122.004 71.443 122.108 72.107 122.108 72.859V80.875H118.556V73.339C118.556 71.739 117.86 70.939 116.468 70.939C116.196 70.939 115.924 70.979 115.652 71.059C115.396 71.123 115.164 71.235 114.956 71.395C114.748 71.539 114.58 71.723 114.452 71.947C114.34 72.171 114.284 72.435 114.284 72.739V80.875H110.732V63.115Z" fill="#703AB3"/>
</svg>
